<mxfile host="65bd71144e">
    <diagram id="oTtMcMbLtmebcLzULKR4" name="Page-1">
        <mxGraphModel dx="1403" dy="1031" grid="1" gridSize="8" guides="1" tooltips="1" connect="1" arrows="1" fold="1" page="1" pageScale="1" pageWidth="1100" pageHeight="850" background="#000000" math="0" shadow="0">
            <root>
                <mxCell id="0"/>
                <mxCell id="1" parent="0"/>
                <mxCell id="459" value="User" style="shape=table;startSize=30;container=1;collapsible=0;childLayout=tableLayout;" vertex="1" parent="1">
                    <mxGeometry x="80" y="80" width="335" height="230" as="geometry"/>
                </mxCell>
                <mxCell id="460" value="" style="shape=tableRow;horizontal=0;startSize=0;swimlaneHead=0;swimlaneBody=0;top=0;left=0;bottom=0;right=0;collapsible=0;dropTarget=0;fillColor=none;points=[[0,0.5],[1,0.5]];portConstraint=eastwest;" vertex="1" parent="459">
                    <mxGeometry y="30" width="335" height="40" as="geometry"/>
                </mxCell>
                <mxCell id="461" value="userID" style="shape=partialRectangle;html=1;whiteSpace=wrap;connectable=0;overflow=hidden;fillColor=none;top=0;left=0;bottom=0;right=0;pointerEvents=1;" vertex="1" parent="460">
                    <mxGeometry width="168" height="40" as="geometry">
                        <mxRectangle width="168" height="40" as="alternateBounds"/>
                    </mxGeometry>
                </mxCell>
                <mxCell id="462" value="int" style="shape=partialRectangle;html=1;whiteSpace=wrap;connectable=0;overflow=hidden;fillColor=none;top=0;left=0;bottom=0;right=0;pointerEvents=1;" vertex="1" parent="460">
                    <mxGeometry x="168" width="167" height="40" as="geometry">
                        <mxRectangle width="167" height="40" as="alternateBounds"/>
                    </mxGeometry>
                </mxCell>
                <mxCell id="463" value="" style="shape=tableRow;horizontal=0;startSize=0;swimlaneHead=0;swimlaneBody=0;top=0;left=0;bottom=0;right=0;collapsible=0;dropTarget=0;fillColor=none;points=[[0,0.5],[1,0.5]];portConstraint=eastwest;" vertex="1" parent="459">
                    <mxGeometry y="70" width="335" height="40" as="geometry"/>
                </mxCell>
                <mxCell id="464" value="cognitoID" style="shape=partialRectangle;html=1;whiteSpace=wrap;connectable=0;overflow=hidden;fillColor=none;top=0;left=0;bottom=0;right=0;pointerEvents=1;" vertex="1" parent="463">
                    <mxGeometry width="168" height="40" as="geometry">
                        <mxRectangle width="168" height="40" as="alternateBounds"/>
                    </mxGeometry>
                </mxCell>
                <mxCell id="465" value="string" style="shape=partialRectangle;html=1;whiteSpace=wrap;connectable=0;overflow=hidden;fillColor=none;top=0;left=0;bottom=0;right=0;pointerEvents=1;" vertex="1" parent="463">
                    <mxGeometry x="168" width="167" height="40" as="geometry">
                        <mxRectangle width="167" height="40" as="alternateBounds"/>
                    </mxGeometry>
                </mxCell>
                <mxCell id="466" value="" style="shape=tableRow;horizontal=0;startSize=0;swimlaneHead=0;swimlaneBody=0;top=0;left=0;bottom=0;right=0;collapsible=0;dropTarget=0;fillColor=none;points=[[0,0.5],[1,0.5]];portConstraint=eastwest;" vertex="1" parent="459">
                    <mxGeometry y="110" width="335" height="40" as="geometry"/>
                </mxCell>
                <mxCell id="467" value="username" style="shape=partialRectangle;html=1;whiteSpace=wrap;connectable=0;overflow=hidden;fillColor=none;top=0;left=0;bottom=0;right=0;pointerEvents=1;" vertex="1" parent="466">
                    <mxGeometry width="168" height="40" as="geometry">
                        <mxRectangle width="168" height="40" as="alternateBounds"/>
                    </mxGeometry>
                </mxCell>
                <mxCell id="468" value="string" style="shape=partialRectangle;html=1;whiteSpace=wrap;connectable=0;overflow=hidden;fillColor=none;top=0;left=0;bottom=0;right=0;pointerEvents=1;" vertex="1" parent="466">
                    <mxGeometry x="168" width="167" height="40" as="geometry">
                        <mxRectangle width="167" height="40" as="alternateBounds"/>
                    </mxGeometry>
                </mxCell>
                <mxCell id="469" value="" style="shape=tableRow;horizontal=0;startSize=0;swimlaneHead=0;swimlaneBody=0;top=0;left=0;bottom=0;right=0;collapsible=0;dropTarget=0;fillColor=none;points=[[0,0.5],[1,0.5]];portConstraint=eastwest;" vertex="1" parent="459">
                    <mxGeometry y="150" width="335" height="40" as="geometry"/>
                </mxCell>
                <mxCell id="470" value="profilePicURL" style="shape=partialRectangle;html=1;whiteSpace=wrap;connectable=0;overflow=hidden;fillColor=none;top=0;left=0;bottom=0;right=0;pointerEvents=1;" vertex="1" parent="469">
                    <mxGeometry width="168" height="40" as="geometry">
                        <mxRectangle width="168" height="40" as="alternateBounds"/>
                    </mxGeometry>
                </mxCell>
                <mxCell id="471" value="string" style="shape=partialRectangle;html=1;whiteSpace=wrap;connectable=0;overflow=hidden;fillColor=none;top=0;left=0;bottom=0;right=0;pointerEvents=1;" vertex="1" parent="469">
                    <mxGeometry x="168" width="167" height="40" as="geometry">
                        <mxRectangle width="167" height="40" as="alternateBounds"/>
                    </mxGeometry>
                </mxCell>
                <mxCell id="472" value="" style="shape=tableRow;horizontal=0;startSize=0;swimlaneHead=0;swimlaneBody=0;top=0;left=0;bottom=0;right=0;collapsible=0;dropTarget=0;fillColor=none;points=[[0,0.5],[1,0.5]];portConstraint=eastwest;" vertex="1" parent="459">
                    <mxGeometry y="190" width="335" height="40" as="geometry"/>
                </mxCell>
                <mxCell id="473" value="teamID" style="shape=partialRectangle;html=1;whiteSpace=wrap;connectable=0;overflow=hidden;fillColor=none;top=0;left=0;bottom=0;right=0;pointerEvents=1;" vertex="1" parent="472">
                    <mxGeometry width="168" height="40" as="geometry">
                        <mxRectangle width="168" height="40" as="alternateBounds"/>
                    </mxGeometry>
                </mxCell>
                <mxCell id="474" value="int" style="shape=partialRectangle;html=1;whiteSpace=wrap;connectable=0;overflow=hidden;fillColor=none;top=0;left=0;bottom=0;right=0;pointerEvents=1;" vertex="1" parent="472">
                    <mxGeometry x="168" width="167" height="40" as="geometry">
                        <mxRectangle width="167" height="40" as="alternateBounds"/>
                    </mxGeometry>
                </mxCell>
                <mxCell id="475" value="Project" style="shape=table;startSize=30;container=1;collapsible=0;childLayout=tableLayout;" vertex="1" parent="1">
                    <mxGeometry x="48" y="488" width="335" height="230" as="geometry"/>
                </mxCell>
                <mxCell id="476" value="" style="shape=tableRow;horizontal=0;startSize=0;swimlaneHead=0;swimlaneBody=0;top=0;left=0;bottom=0;right=0;collapsible=0;dropTarget=0;fillColor=none;points=[[0,0.5],[1,0.5]];portConstraint=eastwest;" vertex="1" parent="475">
                    <mxGeometry y="30" width="335" height="40" as="geometry"/>
                </mxCell>
                <mxCell id="477" value="id" style="shape=partialRectangle;html=1;whiteSpace=wrap;connectable=0;overflow=hidden;fillColor=none;top=0;left=0;bottom=0;right=0;pointerEvents=1;" vertex="1" parent="476">
                    <mxGeometry width="168" height="40" as="geometry">
                        <mxRectangle width="168" height="40" as="alternateBounds"/>
                    </mxGeometry>
                </mxCell>
                <mxCell id="478" value="int" style="shape=partialRectangle;html=1;whiteSpace=wrap;connectable=0;overflow=hidden;fillColor=none;top=0;left=0;bottom=0;right=0;pointerEvents=1;" vertex="1" parent="476">
                    <mxGeometry x="168" width="167" height="40" as="geometry">
                        <mxRectangle width="167" height="40" as="alternateBounds"/>
                    </mxGeometry>
                </mxCell>
                <mxCell id="479" value="" style="shape=tableRow;horizontal=0;startSize=0;swimlaneHead=0;swimlaneBody=0;top=0;left=0;bottom=0;right=0;collapsible=0;dropTarget=0;fillColor=none;points=[[0,0.5],[1,0.5]];portConstraint=eastwest;" vertex="1" parent="475">
                    <mxGeometry y="70" width="335" height="40" as="geometry"/>
                </mxCell>
                <mxCell id="480" value="name" style="shape=partialRectangle;html=1;whiteSpace=wrap;connectable=0;overflow=hidden;fillColor=none;top=0;left=0;bottom=0;right=0;pointerEvents=1;" vertex="1" parent="479">
                    <mxGeometry width="168" height="40" as="geometry">
                        <mxRectangle width="168" height="40" as="alternateBounds"/>
                    </mxGeometry>
                </mxCell>
                <mxCell id="481" value="string" style="shape=partialRectangle;html=1;whiteSpace=wrap;connectable=0;overflow=hidden;fillColor=none;top=0;left=0;bottom=0;right=0;pointerEvents=1;" vertex="1" parent="479">
                    <mxGeometry x="168" width="167" height="40" as="geometry">
                        <mxRectangle width="167" height="40" as="alternateBounds"/>
                    </mxGeometry>
                </mxCell>
                <mxCell id="482" value="" style="shape=tableRow;horizontal=0;startSize=0;swimlaneHead=0;swimlaneBody=0;top=0;left=0;bottom=0;right=0;collapsible=0;dropTarget=0;fillColor=none;points=[[0,0.5],[1,0.5]];portConstraint=eastwest;" vertex="1" parent="475">
                    <mxGeometry y="110" width="335" height="40" as="geometry"/>
                </mxCell>
                <mxCell id="483" value="description" style="shape=partialRectangle;html=1;whiteSpace=wrap;connectable=0;overflow=hidden;fillColor=none;top=0;left=0;bottom=0;right=0;pointerEvents=1;" vertex="1" parent="482">
                    <mxGeometry width="168" height="40" as="geometry">
                        <mxRectangle width="168" height="40" as="alternateBounds"/>
                    </mxGeometry>
                </mxCell>
                <mxCell id="484" value="string" style="shape=partialRectangle;html=1;whiteSpace=wrap;connectable=0;overflow=hidden;fillColor=none;top=0;left=0;bottom=0;right=0;pointerEvents=1;" vertex="1" parent="482">
                    <mxGeometry x="168" width="167" height="40" as="geometry">
                        <mxRectangle width="167" height="40" as="alternateBounds"/>
                    </mxGeometry>
                </mxCell>
                <mxCell id="485" value="" style="shape=tableRow;horizontal=0;startSize=0;swimlaneHead=0;swimlaneBody=0;top=0;left=0;bottom=0;right=0;collapsible=0;dropTarget=0;fillColor=none;points=[[0,0.5],[1,0.5]];portConstraint=eastwest;" vertex="1" parent="475">
                    <mxGeometry y="150" width="335" height="40" as="geometry"/>
                </mxCell>
                <mxCell id="486" value="startDate" style="shape=partialRectangle;html=1;whiteSpace=wrap;connectable=0;overflow=hidden;fillColor=none;top=0;left=0;bottom=0;right=0;pointerEvents=1;" vertex="1" parent="485">
                    <mxGeometry width="168" height="40" as="geometry">
                        <mxRectangle width="168" height="40" as="alternateBounds"/>
                    </mxGeometry>
                </mxCell>
                <mxCell id="487" value="date" style="shape=partialRectangle;html=1;whiteSpace=wrap;connectable=0;overflow=hidden;fillColor=none;top=0;left=0;bottom=0;right=0;pointerEvents=1;" vertex="1" parent="485">
                    <mxGeometry x="168" width="167" height="40" as="geometry">
                        <mxRectangle width="167" height="40" as="alternateBounds"/>
                    </mxGeometry>
                </mxCell>
                <mxCell id="488" value="" style="shape=tableRow;horizontal=0;startSize=0;swimlaneHead=0;swimlaneBody=0;top=0;left=0;bottom=0;right=0;collapsible=0;dropTarget=0;fillColor=none;points=[[0,0.5],[1,0.5]];portConstraint=eastwest;" vertex="1" parent="475">
                    <mxGeometry y="190" width="335" height="40" as="geometry"/>
                </mxCell>
                <mxCell id="489" value="endDate" style="shape=partialRectangle;html=1;whiteSpace=wrap;connectable=0;overflow=hidden;fillColor=none;top=0;left=0;bottom=0;right=0;pointerEvents=1;" vertex="1" parent="488">
                    <mxGeometry width="168" height="40" as="geometry">
                        <mxRectangle width="168" height="40" as="alternateBounds"/>
                    </mxGeometry>
                </mxCell>
                <mxCell id="490" value="date" style="shape=partialRectangle;html=1;whiteSpace=wrap;connectable=0;overflow=hidden;fillColor=none;top=0;left=0;bottom=0;right=0;pointerEvents=1;" vertex="1" parent="488">
                    <mxGeometry x="168" width="167" height="40" as="geometry">
                        <mxRectangle width="167" height="40" as="alternateBounds"/>
                    </mxGeometry>
                </mxCell>
                <mxCell id="507" value="Team" style="shape=table;startSize=30;container=1;collapsible=0;childLayout=tableLayout;" vertex="1" parent="1">
                    <mxGeometry x="728" y="96" width="344" height="190" as="geometry"/>
                </mxCell>
                <mxCell id="508" value="" style="shape=tableRow;horizontal=0;startSize=0;swimlaneHead=0;swimlaneBody=0;top=0;left=0;bottom=0;right=0;collapsible=0;dropTarget=0;fillColor=none;points=[[0,0.5],[1,0.5]];portConstraint=eastwest;" vertex="1" parent="507">
                    <mxGeometry y="30" width="344" height="40" as="geometry"/>
                </mxCell>
                <mxCell id="509" value="ID" style="shape=partialRectangle;html=1;whiteSpace=wrap;connectable=0;overflow=hidden;fillColor=none;top=0;left=0;bottom=0;right=0;pointerEvents=1;" vertex="1" parent="508">
                    <mxGeometry width="172" height="40" as="geometry">
                        <mxRectangle width="172" height="40" as="alternateBounds"/>
                    </mxGeometry>
                </mxCell>
                <mxCell id="510" value="string" style="shape=partialRectangle;html=1;whiteSpace=wrap;connectable=0;overflow=hidden;fillColor=none;top=0;left=0;bottom=0;right=0;pointerEvents=1;" vertex="1" parent="508">
                    <mxGeometry x="172" width="172" height="40" as="geometry">
                        <mxRectangle width="172" height="40" as="alternateBounds"/>
                    </mxGeometry>
                </mxCell>
                <mxCell id="511" value="" style="shape=tableRow;horizontal=0;startSize=0;swimlaneHead=0;swimlaneBody=0;top=0;left=0;bottom=0;right=0;collapsible=0;dropTarget=0;fillColor=none;points=[[0,0.5],[1,0.5]];portConstraint=eastwest;" vertex="1" parent="507">
                    <mxGeometry y="70" width="344" height="40" as="geometry"/>
                </mxCell>
                <mxCell id="512" value="teamName" style="shape=partialRectangle;html=1;whiteSpace=wrap;connectable=0;overflow=hidden;fillColor=none;top=0;left=0;bottom=0;right=0;pointerEvents=1;" vertex="1" parent="511">
                    <mxGeometry width="172" height="40" as="geometry">
                        <mxRectangle width="172" height="40" as="alternateBounds"/>
                    </mxGeometry>
                </mxCell>
                <mxCell id="513" value="String" style="shape=partialRectangle;html=1;whiteSpace=wrap;connectable=0;overflow=hidden;fillColor=none;top=0;left=0;bottom=0;right=0;pointerEvents=1;" vertex="1" parent="511">
                    <mxGeometry x="172" width="172" height="40" as="geometry">
                        <mxRectangle width="172" height="40" as="alternateBounds"/>
                    </mxGeometry>
                </mxCell>
                <mxCell id="514" value="" style="shape=tableRow;horizontal=0;startSize=0;swimlaneHead=0;swimlaneBody=0;top=0;left=0;bottom=0;right=0;collapsible=0;dropTarget=0;fillColor=none;points=[[0,0.5],[1,0.5]];portConstraint=eastwest;" vertex="1" parent="507">
                    <mxGeometry y="110" width="344" height="40" as="geometry"/>
                </mxCell>
                <mxCell id="515" value="projectLeaderUserID" style="shape=partialRectangle;html=1;whiteSpace=wrap;connectable=0;overflow=hidden;fillColor=none;top=0;left=0;bottom=0;right=0;pointerEvents=1;" vertex="1" parent="514">
                    <mxGeometry width="172" height="40" as="geometry">
                        <mxRectangle width="172" height="40" as="alternateBounds"/>
                    </mxGeometry>
                </mxCell>
                <mxCell id="516" value="int" style="shape=partialRectangle;html=1;whiteSpace=wrap;connectable=0;overflow=hidden;fillColor=none;top=0;left=0;bottom=0;right=0;pointerEvents=1;" vertex="1" parent="514">
                    <mxGeometry x="172" width="172" height="40" as="geometry">
                        <mxRectangle width="172" height="40" as="alternateBounds"/>
                    </mxGeometry>
                </mxCell>
                <mxCell id="517" value="" style="shape=tableRow;horizontal=0;startSize=0;swimlaneHead=0;swimlaneBody=0;top=0;left=0;bottom=0;right=0;collapsible=0;dropTarget=0;fillColor=none;points=[[0,0.5],[1,0.5]];portConstraint=eastwest;" vertex="1" parent="507">
                    <mxGeometry y="150" width="344" height="40" as="geometry"/>
                </mxCell>
                <mxCell id="518" value="projectOwnerUserID" style="shape=partialRectangle;html=1;whiteSpace=wrap;connectable=0;overflow=hidden;fillColor=none;top=0;left=0;bottom=0;right=0;pointerEvents=1;" vertex="1" parent="517">
                    <mxGeometry width="172" height="40" as="geometry">
                        <mxRectangle width="172" height="40" as="alternateBounds"/>
                    </mxGeometry>
                </mxCell>
                <mxCell id="519" value="int" style="shape=partialRectangle;html=1;whiteSpace=wrap;connectable=0;overflow=hidden;fillColor=none;top=0;left=0;bottom=0;right=0;pointerEvents=1;" vertex="1" parent="517">
                    <mxGeometry x="172" width="172" height="40" as="geometry">
                        <mxRectangle width="172" height="40" as="alternateBounds"/>
                    </mxGeometry>
                </mxCell>
                <mxCell id="520" style="edgeStyle=none;html=1;entryX=0;entryY=0.5;entryDx=0;entryDy=0;exitX=1;exitY=0.5;exitDx=0;exitDy=0;" edge="1" parent="1" source="460" target="514">
                    <mxGeometry relative="1" as="geometry">
                        <mxPoint x="418" y="189" as="sourcePoint"/>
                    </mxGeometry>
                </mxCell>
                <mxCell id="522" style="edgeStyle=none;html=1;exitX=1;exitY=0.5;exitDx=0;exitDy=0;" edge="1" parent="1" source="460">
                    <mxGeometry relative="1" as="geometry">
                        <mxPoint x="640" y="204" as="sourcePoint"/>
                        <mxPoint x="728" y="266" as="targetPoint"/>
                    </mxGeometry>
                </mxCell>
            </root>
        </mxGraphModel>
    </diagram>
</mxfile>